<?xml version="1.0" encoding="UTF-8"?> <svg xmlns="http://www.w3.org/2000/svg" id="Layer_2" viewBox="0 0 56 56"><defs><style>.cls-1{fill:#fff;}.cls-2{fill:#dca0aa;}.cls-3{fill:#d9dc53;}</style></defs><g id="Layer_1-2"><circle class="cls-2" cx="28" cy="28" r="28"></circle><path d="m41.73,27.17c.64,1.1,1.26,2.17,1.89,3.23.38.64.08,1.29-.65,1.46-1.65.38-3.16,1.12-4.61,1.97-2.44,1.43-4.63,3.19-6.69,5.12-2.04,1.91-4.21,3.62-6.73,4.86-1.36.67-2.77,1.18-4.3,1.32-.3.03-.6.03-.9.02-.43,0-.74-.22-.96-.58-2.34-3.99-4.69-7.99-7.03-11.98-.26-.45-.53-.9-.79-1.35-.38-.66-.12-1.24.6-1.47.82-.26,1.62-.56,2.43-.84.08-.03.16-.07.27-.12-.28-.47-.54-.93-.81-1.38-.35-.59-.68-1.19-1.04-1.77-.41-.64-.12-1.35.62-1.54,2.28-.59,4.36-1.66,6.34-2.93,1.67-1.07,3.15-2.38,4.65-3.66,2.41-2.06,4.94-3.95,7.78-5.38,1.11-.56,2.26-1.03,3.5-1.25.3-.05.62-.07.93-.08.46-.02.79.19,1.03.59,1.18,2.03,2.36,4.06,3.55,6.08,1.41,2.42,2.83,4.84,4.25,7.26.39.67.08,1.34-.68,1.48-.91.17-1.76.53-2.63.92Zm-28.3-1.94c.05.09.1.18.16.28,2.46,4.2,4.93,8.4,7.38,12.6.15.26.31.35.6.33,1.47-.06,2.83-.54,4.14-1.16,1.95-.93,3.69-2.18,5.33-3.59,1.43-1.24,2.82-2.53,4.27-3.73,1.87-1.54,3.88-2.86,6.1-3.85.83-.37,1.69-.66,2.55-.99-.03-.05-.07-.14-.12-.22-.92-1.59-1.85-3.17-2.77-4.76-1.56-2.67-3.11-5.33-4.66-8-.1-.18-.21-.26-.41-.22-.37.07-.74.11-1.1.2-1.58.42-3.01,1.17-4.39,2.01-2.47,1.5-4.72,3.29-6.88,5.2-2.25,1.99-4.72,3.66-7.49,4.86-.88.38-1.78.69-2.7,1.04Zm1.41,4.59c-.96.35-1.89.69-2.84,1.03.04.08.09.16.13.24,2.42,4.13,4.84,8.26,7.26,12.38.4.68.39.67,1.18.58,1.46-.16,2.8-.67,4.09-1.32,2.01-1.02,3.8-2.36,5.47-3.86,1.5-1.35,2.96-2.74,4.59-3.95,1.95-1.45,4-2.73,6.27-3.61.5-.19,1.01-.34,1.54-.52-.61-1.04-1.21-2.07-1.82-3.11-.11.06-.2.1-.29.15-2.25,1.24-4.27,2.77-6.2,4.46-1.32,1.16-2.62,2.33-3.98,3.44-1.45,1.17-3.03,2.13-4.75,2.86-1.37.58-2.78,1-4.3.96-.48-.01-.81-.23-1.04-.63-1.38-2.36-2.76-4.71-4.14-7.07-.4-.68-.79-1.35-1.18-2.01Z"></path><path class="cls-1" d="m13.43,25.23c.91-.35,1.82-.65,2.7-1.04,2.76-1.2,5.23-2.87,7.49-4.86,2.16-1.91,4.41-3.71,6.88-5.2,1.39-.84,2.82-1.59,4.39-2.01.36-.09.74-.13,1.1-.2.2-.04.31.04.41.22,1.55,2.67,3.11,5.33,4.66,8,.93,1.59,1.85,3.17,2.77,4.76.05.09.09.17.12.22-.86.33-1.72.62-2.55.99-2.22.99-4.23,2.31-6.1,3.85-1.46,1.2-2.84,2.5-4.27,3.73-1.63,1.41-3.37,2.66-5.33,3.59-1.31.62-2.66,1.1-4.14,1.16-.29.01-.45-.08-.6-.33-2.45-4.2-4.92-8.4-7.38-12.6-.06-.09-.11-.19-.16-.28Zm8.7,12.07c1.13-.06,2.32-.4,3.45-.94,1.8-.85,3.39-2.02,4.86-3.34.5-.45.99-.92,1.47-1.39.22-.21.23-.45.07-.6-.17-.15-.37-.13-.58.08-.17.17-.33.34-.5.5-1.66,1.6-3.43,3.04-5.53,4.04-1.03.49-2.09.87-3.24.92-.21,0-.33-.06-.43-.24-1.27-2.13-2.55-4.26-3.83-6.39-.07-.12-.13-.24-.21-.35-.13-.16-.32-.2-.46-.08-.1.09-.13.27-.15.42-.01.06.07.14.11.22,1.31,2.18,2.62,4.35,3.91,6.54.27.45.61.69,1.07.61Zm13.05-24.02c-.49.12-1,.21-1.48.37-1.69.56-3.19,1.48-4.64,2.49-.5.35-.99.72-1.47,1.09-.2.15-.23.35-.09.52.13.17.33.19.53.05.09-.06.17-.13.26-.2,1.46-1.11,2.97-2.14,4.65-2.88.73-.32,1.47-.6,2.27-.67.18-.01.28.04.37.2,1.1,1.82,2.21,3.64,3.31,5.46.06.1.12.21.2.3.12.14.28.18.44.08.16-.09.22-.24.17-.42-.03-.09-.08-.16-.13-.24-1.13-1.86-2.27-3.73-3.4-5.6-.23-.38-.54-.55-.99-.55Z"></path><path class="cls-1" d="m14.84,29.82c.39.66.79,1.34,1.18,2.01,1.38,2.36,2.76,4.71,4.14,7.07.24.4.56.62,1.04.63,1.51.04,2.93-.38,4.3-.96,1.72-.73,3.31-1.69,4.75-2.86,1.36-1.1,2.67-2.28,3.98-3.44,1.92-1.69,3.95-3.22,6.2-4.46.09-.05.18-.09.29-.15.61,1.04,1.21,2.07,1.82,3.11-.53.18-1.04.32-1.54.52-2.28.88-4.32,2.17-6.27,3.61-1.63,1.21-3.09,2.6-4.59,3.95-1.67,1.5-3.46,2.84-5.47,3.86-1.29.66-2.64,1.16-4.09,1.32-.78.09-.78.1-1.18-.58-2.42-4.13-4.84-8.26-7.26-12.38-.05-.08-.09-.16-.13-.24.94-.34,1.88-.69,2.84-1.03Z"></path><path d="m22.13,37.3c-.47.08-.8-.15-1.07-.61-1.29-2.18-2.61-4.36-3.91-6.54-.04-.07-.12-.15-.11-.22.02-.15.05-.33.15-.42.14-.13.33-.08.46.08.08.11.14.23.21.35,1.28,2.13,2.56,4.26,3.83,6.39.11.18.22.25.43.24,1.16-.05,2.22-.43,3.24-.92,2.09-1,3.87-2.45,5.53-4.04.17-.16.34-.34.5-.5.21-.21.41-.23.58-.08.17.15.15.39-.07.6-.49.47-.97.94-1.47,1.39-1.48,1.32-3.06,2.49-4.86,3.34-1.14.54-2.32.87-3.45.94Z"></path><path d="m35.18,13.28c.45,0,.76.17.99.55,1.13,1.87,2.26,3.73,3.4,5.6.05.08.1.16.13.24.05.18,0,.33-.17.42-.17.09-.32.06-.44-.08-.08-.09-.13-.2-.2-.3-1.11-1.82-2.21-3.64-3.31-5.46-.09-.16-.2-.21-.37-.2-.8.07-1.55.34-2.27.67-1.68.75-3.19,1.77-4.65,2.88-.09.07-.17.14-.26.2-.2.14-.4.12-.53-.05-.13-.17-.11-.37.09-.52.49-.37.97-.74,1.47-1.09,1.45-1.01,2.95-1.93,4.64-2.49.48-.16.99-.25,1.48-.37Z"></path><path class="cls-3" d="m24.7,21.26c.22-.07,3.31-1.55,3.31-1.55l5.44,3.61s1.18,4.14-.81,5.45l-3.97,1.02h-3.38s-1.1-1.62-1.18-1.91-.52-2.35-.52-2.35l1.1-4.27Z"></path><circle class="cls-2" cx="28" cy="28" r="28"></circle><path d="m41.73,27.17c.64,1.1,1.26,2.17,1.89,3.23.38.64.08,1.29-.65,1.46-1.65.38-3.16,1.12-4.61,1.97-2.44,1.43-4.63,3.19-6.69,5.12-2.04,1.91-4.21,3.62-6.73,4.86-1.36.67-2.77,1.18-4.3,1.32-.3.03-.6.03-.9.02-.43,0-.74-.22-.96-.58-2.34-3.99-4.69-7.99-7.03-11.98-.26-.45-.53-.9-.79-1.35-.38-.66-.12-1.24.6-1.47.82-.26,1.62-.56,2.43-.84.08-.03.16-.07.27-.12-.28-.47-.54-.93-.81-1.38-.35-.59-.68-1.19-1.04-1.77-.41-.64-.12-1.35.62-1.54,2.28-.59,4.36-1.66,6.34-2.93,1.67-1.07,3.15-2.38,4.65-3.66,2.41-2.06,4.94-3.95,7.78-5.38,1.11-.56,2.26-1.03,3.5-1.25.3-.05.62-.07.93-.08.46-.02.79.19,1.03.59,1.18,2.03,2.36,4.06,3.55,6.08,1.41,2.42,2.83,4.84,4.25,7.26.39.67.08,1.34-.68,1.48-.91.17-1.76.53-2.63.92Zm-28.3-1.94c.05.09.1.18.16.28,2.46,4.2,4.93,8.4,7.38,12.6.15.26.31.35.6.33,1.47-.06,2.83-.54,4.14-1.16,1.95-.93,3.69-2.18,5.33-3.59,1.43-1.24,2.82-2.53,4.27-3.73,1.87-1.54,3.88-2.86,6.1-3.85.83-.37,1.69-.66,2.55-.99-.03-.05-.07-.14-.12-.22-.92-1.59-1.85-3.17-2.77-4.76-1.56-2.67-3.11-5.33-4.66-8-.1-.18-.21-.26-.41-.22-.37.07-.74.11-1.1.2-1.58.42-3.01,1.17-4.39,2.01-2.47,1.5-4.72,3.29-6.88,5.2-2.25,1.99-4.72,3.66-7.49,4.86-.88.38-1.78.69-2.7,1.04Zm1.41,4.59c-.96.35-1.89.69-2.84,1.03.04.08.09.16.13.24,2.42,4.13,4.84,8.26,7.26,12.38.4.68.39.67,1.18.58,1.46-.16,2.8-.67,4.09-1.32,2.01-1.02,3.8-2.36,5.47-3.86,1.5-1.35,2.96-2.74,4.59-3.95,1.95-1.45,4-2.73,6.27-3.61.5-.19,1.01-.34,1.54-.52-.61-1.04-1.21-2.07-1.82-3.11-.11.06-.2.1-.29.15-2.25,1.24-4.27,2.77-6.2,4.46-1.32,1.16-2.62,2.33-3.98,3.44-1.45,1.17-3.03,2.13-4.75,2.86-1.37.58-2.78,1-4.3.96-.48-.01-.81-.23-1.04-.63-1.38-2.36-2.76-4.71-4.14-7.07-.4-.68-.79-1.35-1.18-2.01Z"></path><path class="cls-1" d="m13.43,25.23c.91-.35,1.82-.65,2.7-1.04,2.76-1.2,5.23-2.87,7.49-4.86,2.16-1.91,4.41-3.71,6.88-5.2,1.39-.84,2.82-1.59,4.39-2.01.36-.09.74-.13,1.1-.2.2-.04.31.04.41.22,1.55,2.67,3.11,5.33,4.66,8,.93,1.59,1.85,3.17,2.77,4.76.05.09.09.17.12.22-.86.33-1.72.62-2.55.99-2.22.99-4.23,2.31-6.1,3.85-1.46,1.2-2.84,2.5-4.27,3.73-1.63,1.41-3.37,2.66-5.33,3.59-1.31.62-2.66,1.1-4.14,1.16-.29.01-.45-.08-.6-.33-2.45-4.2-4.92-8.4-7.38-12.6-.06-.09-.11-.19-.16-.28Zm8.7,12.07c1.13-.06,2.32-.4,3.45-.94,1.8-.85,3.39-2.02,4.86-3.34.5-.45.99-.92,1.47-1.39.22-.21.23-.45.07-.6-.17-.15-.37-.13-.58.08-.17.17-.33.34-.5.5-1.66,1.6-3.43,3.04-5.53,4.04-1.03.49-2.09.87-3.24.92-.21,0-.33-.06-.43-.24-1.27-2.13-2.55-4.26-3.83-6.39-.07-.12-.13-.24-.21-.35-.13-.16-.32-.2-.46-.08-.1.09-.13.27-.15.42-.01.06.07.14.11.22,1.31,2.18,2.62,4.35,3.91,6.54.27.45.61.69,1.07.61Zm13.05-24.02c-.49.12-1,.21-1.48.37-1.69.56-3.19,1.48-4.64,2.49-.5.35-.99.72-1.47,1.09-.2.15-.23.35-.09.52.13.17.33.19.53.05.09-.06.17-.13.26-.2,1.46-1.11,2.97-2.14,4.65-2.88.73-.32,1.47-.6,2.27-.67.18-.01.28.04.37.2,1.1,1.82,2.21,3.64,3.31,5.46.06.1.12.21.2.3.12.14.28.18.44.08.16-.09.22-.24.17-.42-.03-.09-.08-.16-.13-.24-1.13-1.86-2.27-3.73-3.4-5.6-.23-.38-.54-.55-.99-.55Z"></path><path class="cls-1" d="m14.84,29.82c.39.66.79,1.34,1.18,2.01,1.38,2.36,2.76,4.71,4.14,7.07.24.4.56.62,1.04.63,1.51.04,2.93-.38,4.3-.96,1.72-.73,3.31-1.69,4.75-2.86,1.36-1.1,2.67-2.28,3.98-3.44,1.92-1.69,3.95-3.22,6.2-4.46.09-.05.18-.09.29-.15.61,1.04,1.21,2.07,1.82,3.11-.53.18-1.04.32-1.54.52-2.28.88-4.32,2.17-6.27,3.61-1.63,1.21-3.09,2.6-4.59,3.95-1.67,1.5-3.46,2.84-5.47,3.86-1.29.66-2.64,1.16-4.09,1.32-.78.09-.78.1-1.18-.58-2.42-4.13-4.84-8.26-7.26-12.38-.05-.08-.09-.16-.13-.24.94-.34,1.88-.69,2.84-1.03Z"></path><path d="m22.13,37.3c-.47.08-.8-.15-1.07-.61-1.29-2.18-2.61-4.36-3.91-6.54-.04-.07-.12-.15-.11-.22.02-.15.05-.33.15-.42.14-.13.33-.08.46.08.08.11.14.23.21.35,1.28,2.13,2.56,4.26,3.83,6.39.11.18.22.25.43.24,1.16-.05,2.22-.43,3.24-.92,2.09-1,3.87-2.45,5.53-4.04.17-.16.34-.34.5-.5.21-.21.41-.23.58-.08.17.15.15.39-.07.6-.49.47-.97.94-1.47,1.39-1.48,1.32-3.06,2.49-4.86,3.34-1.14.54-2.32.87-3.45.94Z"></path><path d="m35.18,13.28c.45,0,.76.17.99.55,1.13,1.87,2.26,3.73,3.4,5.6.05.08.1.16.13.24.05.18,0,.33-.17.42-.17.09-.32.06-.44-.08-.08-.09-.13-.2-.2-.3-1.11-1.82-2.21-3.64-3.31-5.46-.09-.16-.2-.21-.37-.2-.8.07-1.55.34-2.27.67-1.68.75-3.19,1.77-4.65,2.88-.09.07-.17.14-.26.2-.2.14-.4.12-.53-.05-.13-.17-.11-.37.09-.52.49-.37.97-.74,1.47-1.09,1.45-1.01,2.95-1.93,4.64-2.49.48-.16.99-.25,1.48-.37Z"></path><path class="cls-3" d="m24.7,21.26c.22-.07,3.31-1.55,3.31-1.55l5.44,3.61s1.18,4.14-.81,5.45l-3.97,1.02h-3.38s-1.1-1.62-1.18-1.91-.52-2.35-.52-2.35l1.1-4.27Z"></path></g></svg> 